# xmcd
#
# Track frame offsets:
#	150
#	18663
#	31451
#	51852
#	68943
#	84451
#	99205
#	115312
#	131449
#	145581
#	157974
#	170018
#
# Disc length: 2439 seconds
# Revision: 0
# Processed by: cddbd v1.5.2PL0 Copyright (c) Steve Scherf et al.
# Submitted via: dBpowerAMP V12.0
#
DISCID=9a09850c
DTITLE=Brad Lee - No Through Road
DYEAR=2005
DGENRE=Country
TTITLE0=No Through Road
TTITLE1=Roaring Through The Night
TTITLE2=Never Mind
TTITLE3=Wearing White
TTITLE4=Salute to R.M.
TTITLE5=Down The Road
TTITLE6=Goondiwindi Moon
TTITLE7=2000 LB of Muscle
TTITLE8=Dancin in The Rain
TTITLE9=One Last Kiss
TTITLE10=Man In A Hat
TTITLE11=At The Local on a Saturday Night
EXTD=
EXTT0=
EXTT1=
EXTT2=
EXTT3=
EXTT4=
EXTT5=
EXTT6=
EXTT7=
EXTT8=
EXTT9=
EXTT10=
EXTT11=
PLAYORDER=
